<?xml version="1.0" encoding="UTF-8" standalone="no"?>
<!DOCTYPE svg PUBLIC "-//W3C//DTD SVG 1.1//EN" "http://www.w3.org/Graphics/SVG/1.1/DTD/svg11.dtd">
<svg width="100%" height="100%" viewBox="0 0 740 740" version="1.1" xmlns="http://www.w3.org/2000/svg" xmlns:xlink="http://www.w3.org/1999/xlink" xml:space="preserve" xmlns:serif="http://www.serif.com/" style="fill-rule:evenodd;clip-rule:evenodd;stroke-linejoin:round;stroke-miterlimit:2;">
    <g transform="matrix(1,0,0,1,-142,-142)">
        <g>
            <g transform="matrix(0.805931,-0.805931,0.909216,0.909216,-391.646,474.327)">
                <path d="M488.515,525.135C488.515,526.16 488.055,527.143 487.237,527.868C486.42,528.593 485.311,529 484.154,529C470.821,529 431.494,529 431.494,529C422.773,529 414.41,525.808 408.243,520.125L349.631,466.115C343.464,460.432 340,452.725 340,444.689L340,301.311C340,293.275 343.464,285.568 349.631,279.885L408.243,225.875C414.41,220.192 422.773,217 431.494,217L643.006,217C651.727,217 660.09,220.192 666.257,225.875L724.869,279.885C731.036,285.568 734.5,293.275 734.5,301.311L734.5,444.689C734.5,452.725 731.036,460.432 724.869,466.115L666.257,520.125C660.09,525.808 651.727,529 643.006,529L590.346,529C589.189,529 588.08,528.593 587.263,527.868C586.445,527.143 585.985,526.16 585.985,525.135C585.985,517.88 585.985,502.302 585.985,495.047C585.985,492.912 584.033,491.182 581.625,491.182C565.458,491.182 509.042,491.182 492.875,491.182C490.467,491.182 488.515,492.912 488.515,495.047C488.515,502.302 488.515,517.88 488.515,525.135ZM668.579,330.891C668.579,325.21 666.13,319.762 661.77,315.745L628.259,284.864C623.899,280.847 617.987,278.59 611.821,278.59L462.679,278.59C456.513,278.59 450.601,280.847 446.241,284.864L412.73,315.745C408.37,319.762 405.921,325.21 405.921,330.891L405.921,415.109C405.921,420.79 408.37,426.238 412.73,430.255L446.241,461.136C450.601,465.153 456.513,467.41 462.679,467.41L611.821,467.41C617.987,467.41 623.899,465.153 628.259,461.136L661.77,430.255C666.13,426.238 668.579,420.79 668.579,415.109L668.579,330.891Z" style="fill:rgb(169,169,169);"/>
            </g>
            <g transform="matrix(0.805931,-0.805931,0.909216,0.909216,-128.602,737.371)">
                <path d="M672.117,240.544C673.432,239.331 675.248,238.646 677.146,238.646C679.044,238.646 680.86,239.331 682.175,240.544C694.436,251.842 724.869,279.885 724.869,279.885C731.036,285.568 734.5,293.275 734.5,301.311L734.5,444.689C734.5,452.725 731.036,460.432 724.869,466.115L666.257,520.125C660.09,525.808 651.727,529 643.006,529L431.494,529C422.773,529 414.41,525.808 408.243,520.125L349.631,466.115C343.464,460.432 340,452.725 340,444.689L340,301.311C340,293.275 343.464,285.568 349.631,279.885C349.631,279.885 380.064,251.842 392.325,240.544C393.64,239.331 395.456,238.646 397.354,238.646C399.252,238.646 401.068,239.331 402.383,240.544C405.237,243.173 408.243,245.943 408.243,245.943C414.41,251.626 422.773,254.818 431.494,254.818L495.728,254.818C497.08,254.818 498.377,254.323 499.333,253.442C500.29,252.561 500.827,251.366 500.827,250.119L500.827,221.699C500.827,220.453 501.364,219.257 502.32,218.376C503.276,217.495 504.573,217 505.926,217L568.574,217C569.927,217 571.224,217.495 572.18,218.376C573.136,219.257 573.673,220.453 573.673,221.699L573.673,250.119C573.673,251.366 574.21,252.561 575.167,253.442C576.123,254.323 577.42,254.818 578.772,254.818L643.006,254.818C651.727,254.818 660.09,251.626 666.257,245.943C666.257,245.943 669.263,243.173 672.117,240.544ZM668.579,330.891C668.579,325.21 666.13,319.762 661.77,315.745L628.259,284.864C623.899,280.847 617.987,278.59 611.821,278.59L462.679,278.59C456.513,278.59 450.601,280.847 446.241,284.864L412.73,315.745C408.37,319.762 405.921,325.21 405.921,330.891L405.921,415.109C405.921,420.79 408.37,426.238 412.73,430.255L446.241,461.136C450.601,465.153 456.513,467.41 462.679,467.41L611.821,467.41C617.987,467.41 623.899,465.153 628.259,461.136L661.77,430.255C666.13,426.238 668.579,420.79 668.579,415.109L668.579,330.891Z" style="fill:rgb(209,141,84);"/>
            </g>
        </g>
    </g>
</svg>
